#!OML:ASF H:\Punching\Project 1\Capture day 1\Session 1\female.ASF
:FULLY-SPECIFIED
:DEGREES
2143
root -0.584896 15.402 7.64324 12.9906 -12.7106 -2.47998
lowerback 0.448192 -2.25338 2.27234
upperback -6.5184 -2.95155 0.112057
thorax -7.15319 -1.60424 -0.95127
lowerneck -6.19296 8.67389 13.7686
upperneck 33.5807 13.2188 -9.76185
head 14.1397 6.35845 -4.41286
rclavicle -2.04997e-016 -7.55382e-015
rhumerus -12.5554 40.8664 -76.5586
rradius 128.017
rwrist -6.55428
rhand -23.347 13.7589
rfingers 7.12502
rthumb 3.10796 -16.1982
lclavicle -2.04997e-016 -7.55382e-015
lhumerus 9.10278 -35.6302 36.0148
lradius 126.86
lwrist 4.71647
lhand -6.00883 9.80267
lfingers 7.12502
lthumb 19.8239 38.8117
rfemur -12.0099 3.49809 17.9178
rtibia 27.6075
rfoot -23.0707 -15.6306
rtoes -11.3067
lfemur -34.3511 -23.3539 11.9544
ltibia 14.3479
lfoot -13.5384 35.4403
ltoes 27.1407
2144
root -0.643879 15.4195 7.56369 13.0265 -12.5592 -2.30462
lowerback 0.38959 -2.17363 2.23487
upperback -6.49133 -2.85904 -0.0897032
thorax -7.09552 -1.56247 -1.15064
lowerneck -6.37749 8.59218 13.836
upperneck 33.4309 12.9946 -9.60098
head 14.0668 6.28275 -4.38251
rclavicle -4.80748e-014 -1.35174e-014
rhumerus -13.3602 40.3504 -76.8203
rradius 127.744
rwrist -6.34482
rhand -23.5515 13.8148
rfingers 7.12502
rthumb 2.91048 -16.1451
lclavicle -4.80748e-014 -1.35174e-014
lhumerus 6.57349 -36.3588 37.9796
lradius 127.225
lwrist 4.01273
lhand -6.45983 9.83481
lfingers 7.12502
lthumb 19.3903 38.888
rfemur -12.5478 3.50339 18.0704
rtibia 28.0159
rfoot -22.9999 -15.8177
rtoes -10.9341
lfemur -34.1486 -22.8347 11.3786
ltibia 14.5603
lfoot -12.9155 34.6639
ltoes 26.4741
2145
root -0.699798 15.4374 7.48655 13.0268 -12.413 -2.08715
lowerback 0.351267 -2.09578 2.15409
upperback -6.45439 -2.77056 -0.298037
thorax -7.03669 -1.52014 -1.33167
lowerneck -6.56821 8.50723 13.899
upperneck 33.287 12.7648 -9.43572
head 13.9972 6.20415 -4.35085
rclavicle 2.11147e-014 -1.59028e-015
rhumerus -14.243 39.822 -77.1141
rradius 127.517
rwrist -6.10105
rhand -23.7481 13.4389
rfingers 7.12502
rthumb 2.72066 -16.5235
lclavicle 2.11147e-014 -1.59028e-015
lhumerus 3.97753 -36.9175 40.0582
lradius 127.433
lwrist 3.48845
lhand -6.87419 9.624
lfingers 7.12502
lthumb 18.9918 38.7168
rfemur -13.0333 3.51856 18.1596
rtibia 28.3931
rfoot -22.9247 -15.9977
rtoes -10.5757
lfemur -33.7129 -21.612 10.2469
ltibia 14.8141
lfoot -10.6007 33.3791
ltoes 24.7773
2146
root -0.752825 15.4548 7.41138 12.9905 -12.2671 -1.83983
lowerback 0.342003 -2.02471 2.03393
upperback -6.41044 -2.69145 -0.498375
thorax -6.98476 -1.47976 -1.48058
lowerneck -6.75601 8.42146 13.9473
upperneck 33.1498 12.5413 -9.28167
head 13.9316 6.12532 -4.321
rclavicle -3.12092e-014 1.98785e-015
rhumerus -15.202 39.3002 -77.4239
rradius 127.347
rwrist -5.86661
rhand -23.9157 12.6423
rfingers 7.12502
rthumb 2.55877 -17.3221
lclavicle -3.12092e-014 1.98785e-015
lhumerus 1.31054 -37.2779 42.25
lradius 127.498
lwrist 3.19145
lhand -7.21095 9.15564
lfingers 7.12502
lthumb 18.6679 38.2799
rfemur -13.4676 3.54499 18.1997
rtibia 28.7485
rfoot -22.8567 -16.1708
rtoes -10.2009
lfemur -33.1385 -20.0007 8.79709
ltibia 15.1039
lfoot -7.46282 31.6084
ltoes 22.2613
2147
root -0.8031 15.471 7.33805 12.9187 -12.1121 -1.57596
lowerback 0.367147 -1.96068 1.88517
upperback -6.35922 -2.6212 -0.683418
thorax -6.94297 -1.4415 -1.59572
lowerneck -6.93854 8.3342 13.958
upperneck 33.014 12.322 -9.12143
head 13.863 6.04449 -4.28214
rclavicle 2.26304e-014 3.18055e-015
rhumerus -16.2191 38.7706 -77.73
rradius 127.224
rwrist -5.68966
rhand -24.044 11.5356
rfingers 7.12502
rthumb 2.43482 -18.4303
lclavicle 2.26304e-014 3.18055e-015
lhumerus -1.41346 -37.4632 44.5376
lradius 127.468
lwrist 3.04103
lhand -7.48885 8.66432
lfingers 7.12502
lthumb 18.4006 37.814
rfemur -13.8468 3.5767 18.2078
rtibia 29.0849
rfoot -22.8017 -16.3411
rtoes -9.8095
lfemur -32.5118 -18.2665 7.22405
ltibia 15.4454
lfoot -4.46936 29.4706
ltoes 19.3753
2148
root -0.850709 15.486 7.26633 12.8136 -11.9428 -1.30388
lowerback 0.429522 -1.90503 1.71407
upperback -6.30287 -2.56126 -0.847528
thorax -6.91554 -1.40635 -1.67455
lowerneck -7.11127 8.24478 13.9261
upperneck 32.8775 12.1085 -8.95824
head 13.7898 5.96171 -4.23467
rclavicle 1.17935e-014 1.59028e-015
rhumerus -17.2838 38.202 -78.0099
rradius 127.086
rwrist -5.6026
rhand -24.1676 10.5942
rfingers 7.12502
rthumb 2.31545 -19.373
lclavicle 1.17935e-014 1.59028e-015
lhumerus -4.17833 -37.4582 46.9009
lradius 127.35
lwrist 2.99983
lhand -7.67805 8.19553
lfingers 7.12502
lthumb 18.2186 37.3623
rfemur -14.1696 3.60422 18.1947
rtibia 29.3976
rfoot -22.7596 -16.5069
rtoes -9.388
lfemur -31.8894 -16.5915 5.65304
ltibia 15.8584
lfoot -2.29536 27.2367
ltoes 16.5255
2149
root -0.895859 15.5004 7.19595 12.6844 -11.7581 -1.03358
lowerback 0.528167 -1.85023 1.53016
upperback -6.24083 -2.50171 -0.99595
thorax -6.90172 -1.37013 -1.72868
lowerneck -7.28193 8.14854 13.8632
upperneck 32.7351 11.8891 -8.78773
head 13.7105 5.87355 -4.18022
rclavicle -1.34521e-014 1.63003e-014
rhumerus -18.3783 37.5489 -78.2446
rradius 126.914
rwrist -5.6596
rhand -24.2558 9.98382
rfingers 7.12502
rthumb 2.23028 -19.9843
lclavicle -1.34521e-014 1.63003e-014
lhumerus -6.93568 -37.2763 49.2922
lradius 127.158
lwrist 2.99933
lhand -7.78046 7.80244
lfingers 7.12502
lthumb 18.1201 36.9784
rfemur -14.4396 3.62383 18.173
rtibia 29.6769
rfoot -22.7141 -16.671
rtoes -8.97668
lfemur -31.2978 -15.0265 4.13321
ltibia 16.3595
lfoot -1.0688 25.2121
ltoes 13.9447
2150
root -0.938487 15.5144 7.12695 12.5404 -11.5575 -0.773691
lowerback 0.655344 -1.79755 1.34131
upperback -6.17423 -2.44405 -1.12447
thorax -6.89859 -1.33391 -1.75834
lowerneck -7.45498 8.04758 13.7822
upperneck 32.5835 11.669 -8.62555
head 13.6277 5.78197 -4.12629
rclavicle -1.56217e-014 5.96354e-015
rhumerus -19.4932 36.8201 -78.4271
rradius 126.717
rwrist -5.84782
rhand -24.2856 9.58819
rfingers 7.12502
rthumb 2.20155 -20.3802
lclavicle -1.56217e-014 5.96354e-015
lhumerus -9.66079 -36.8961 51.6832
lradius 126.883
lwrist 2.9746
lhand -7.77395 7.4869
lfingers 7.12502
lthumb 18.1263 36.6623
rfemur -14.659 3.62993 18.1516
rtibia 29.9095
rfoot -22.657 -16.829
rtoes -8.57443
lfemur -30.7523 -13.5807 2.68603
ltibia 16.9602
lfoot -0.616521 23.5651
ltoes 11.6877
2151
root -0.978598 15.5281 7.05954 12.3942 -11.3426 -0.532789
lowerback 0.801674 -1.74882 1.15561
upperback -6.11039 -2.39057 -1.22946
thorax -6.90894 -1.29929 -1.76436
lowerneck -7.61538 7.94365 13.6914
upperneck 32.4178 11.4539 -8.48118
head 13.5383 5.68977 -4.07754
rclavicle -1.61621e-014 1.59028e-015
rhumerus -20.6257 36.0143 -78.555
rradius 126.467
rwrist -6.16273
rhand -24.2781 9.56563
rfingers 7.12502
rthumb 2.20877 -20.4027
lclavicle -1.61621e-014 1.59028e-015
lhumerus -12.3383 -36.3161 54.0444
lradius 126.528
lwrist 2.86508
lhand -7.67322 7.26173
lfingers 7.12502
lthumb 18.2232 36.4281
rfemur -14.8344 3.62123 18.139
rtibia 30.0842
rfoot -22.5842 -16.9756
rtoes -8.17234
lfemur -30.2628 -12.2588 1.33064
ltibia 17.6617
lfoot -0.706862 22.3237
ltoes 9.91771
2152
root -1.01617 15.5421 6.99407 12.2632 -11.1215 -0.327259
lowerback 0.947344 -1.70163 0.99232
upperback -6.05423 -2.33733 -1.30899
thorax -6.92722 -1.26538 -1.75635
lowerneck -7.75492 7.83448 13.5896
upperneck 32.2351 11.2403 -8.35154
head 13.4386 5.59586 -4.03328
rclavicle 3.18677e-015 -1.70955e-014
rhumerus -21.7834 35.175 -78.6444
rradius 126.21
rwrist -6.51979
rhand -24.2009 9.4418
rfingers 7.12502
rthumb 2.28337 -20.5257
lclavicle 3.18677e-015 -1.70955e-014
lhumerus -14.9503 -35.5224 56.343
lradius 126.089
lwrist 2.65867
lhand -7.48874 7.09564
lfingers 7.12502
lthumb 18.4007 36.2453
rfemur -14.9803 3.60656 18.1505
rtibia 30.1946
rfoot -22.4877 -17.1095
rtoes -7.77812
lfemur -29.8329 -11.0624 0.0951218
ltibia 18.4511
lfoot -1.0861 21.4185
ltoes 8.62217
2153
root -1.05103 15.5564 6.93111 12.161 -10.8981 -0.164441
lowerback 1.07553 -1.65441 0.865305
upperback -6.01019 -2.28162 -1.36434
thorax -6.94896 -1.2317 -1.74405
lowerneck -7.87867 7.72044 13.4776
upperneck 32.0452 11.0267 -8.23034
head 13.3335 5.50017 -3.99132
rclavicle 1.08369e-014 -5.1684e-015
rhumerus -22.9674 34.3112 -78.699
rradius 125.923
rwrist -6.82606
rhand -24.1358 9.26009
rfingers 7.12502
rthumb 2.34622 -20.7068
lclavicle 1.08369e-014 -5.1684e-015
lhumerus -17.4638 -34.5179 58.5372
lradius 125.563
lwrist 2.35969
lhand -7.25024 6.95067
lfingers 7.12502
lthumb 18.6301 36.0785
rfemur -15.1093 3.5883 18.1916
rtibia 30.241
rfoot -22.3659 -17.2291
rtoes -7.39791
lfemur -29.4604 -9.99793 -1.00602
ltibia 19.3077
lfoot -1.56632 20.7313
ltoes 7.65073
2154
root -1.08311 15.5708 6.87098 12.097 -10.6796 -0.0455713
lowerback 1.17067 -1.60421 0.781542
upperback -5.97926 -2.21928 -1.4008
thorax -6.96648 -1.19674 -1.73762
lowerneck -8.00389 7.60366 13.3689
upperneck 31.8677 10.8137 -8.12038
head 13.2364 5.40377 -3.95476
rclavicle 2.4407e-014 -3.97569e-015
rhumerus -24.1779 33.4177 -78.7237
rradius 125.591
rwrist -7.03892
rhand -24.1021 9.05511
rfingers 7.12502
rthumb 2.37871 -20.9114
lclavicle 2.4407e-014 -3.97569e-015
lhumerus -19.862 -33.3296 60.596
lradius 124.96
lwrist 1.97628
lhand -7.02071 6.83239
lfingers 7.12502
lthumb 18.8509 35.939
rfemur -15.2373 3.57526 18.2616
rtibia 30.2318
rfoot -22.2206 -17.3355
rtoes -7.02998
lfemur -29.1366 -9.06168 -1.96943
ltibia 20.2014
lfoot -2.08749 20.1784
ltoes 6.811
2155
root -1.11248 15.585 6.81408 12.0764 -10.4728 0.0356437
lowerback 1.22076 -1.54923 0.737239
upperback -5.96153 -2.14818 -1.42362
thorax -6.97283 -1.15938 -1.74086
lowerneck -8.13019 7.48624 13.2546
upperneck 31.7001 10.5999 -8.00298
head 13.1441 5.3071 -3.91471
rclavicle 1.7521e-014 -9.54166e-015
rhumerus -25.4029 32.4857 -78.7168
rradius 125.202
rwrist -7.16448
rhand -24.0895 8.85926
rfingers 7.12502
rthumb 2.39096 -21.1071
lclavicle 1.7521e-014 -9.54166e-015
lhumerus -22.1192 -31.9734 62.4838
lradius 124.276
lwrist 1.51676
lhand -6.83604 6.71575
lfingers 7.12502
lthumb 19.0285 35.8049
rfemur -15.3783 3.57308 18.3524
rtibia 30.182
rfoot -22.0579 -17.4306
rtoes -6.68206
lfemur -28.848 -8.24113 -2.80691
ltibia 21.0986
lfoot -2.64112 19.7293
ltoes 6.01891
2156
root -1.13906 15.599 6.76065 12.097 -10.2772 0.0975652
lowerback 1.21626 -1.48998 0.720401
upperback -5.9546 -2.06984 -1.44041
thorax -6.95969 -1.1199 -1.75505
lowerneck -8.25926 7.36918 13.1369
upperneck 31.5462 10.3872 -7.88071
head 13.0591 5.21097 -3.87229
rclavicle -2.31957e-014 1.35174e-014
rhumerus -26.638 31.5153 -78.6757
rradius 124.755
rwrist -7.21655
rhand -24.1013 8.6844
rfingers 7.12502
rthumb 2.3795 -21.2821
lclavicle -2.31957e-014 1.35174e-014
lhumerus -24.2224 -30.4825 64.1794
lradius 123.521
lwrist 1.01248
lhand -6.72097 6.6072
lfingers 7.12502
lthumb 19.1392 35.6855
rfemur -15.5382 3.57944 18.4433
rtibia 30.1053
rfoot -21.8904 -17.5128
rtoes -6.33463
lfemur -28.5793 -7.52518 -3.54885
ltibia 21.9672
lfoot -3.22409 19.3558
ltoes 5.24198
2157
root -1.16306 15.6123 6.71049 12.1547 -10.0935 0.148623
lowerback 1.15755 -1.42608 0.724816
upperback -5.9534 -1.98438 -1.4584
thorax -6.92184 -1.07815 -1.78416
lowerneck -8.39845 7.25548 13.0164
upperneck 31.4056 10.1754 -7.74277
head 12.9821 5.11643 -3.82306
rclavicle -2.31398e-015 1.19271e-014
rhumerus -27.8632 30.493 -78.5949
rradius 124.238
rwrist -7.27086
rhand -24.1103 8.61821
rfingers 7.12502
rthumb 2.37087 -21.3484
lclavicle -2.31398e-015 1.19271e-014
lhumerus -26.1524 -28.8938 65.6577
lradius 122.7
lwrist 0.494953
lhand -6.69486 6.53432
lfingers 7.12502
lthumb 19.1643 35.6101
rfemur -15.7205 3.59586 18.5266
rtibia 30.0127
rfoot -21.7206 -17.5882
rtoes -6.00064
lfemur -28.3217 -6.90206 -4.21088
ltibia 22.7874
lfoot -3.84105 19.027
ltoes 4.54431
